{
	"asset":{
		"generator":"Khronos glTF Blender I/O v4.0.44",
		"version":"2.0"
	},
	"scene":0,
	"scenes":[
		{
			"extras":{
				"wiggle":{
					"is_rendering":0
				}
			},
			"name":"Scene",
			"nodes":[
				0
			]
		}
	],
	"nodes":[
		{
			"mesh":0,
			"name":"\u043b\u043e\u0434\u043a\u0430",
			"rotation":[
				0,
				1,
				0,
				1.6292068494294654e-07
			],
			"scale":[
				3.7194766998291016,
				0.1382848024368286,
				0.6972054243087769
			],
			"translation":[
				36.46009063720703,
				0.5539944171905518,
				65.52716827392578
			]
		}
	],
	"materials":[
		{
			"doubleSided":true,
			"extras":{
				"mmd_material":{}
			},
			"name":"Material.004",
			"pbrMetallicRoughness":{
				"baseColorTexture":{
					"index":0
				},
				"metallicFactor":0,
				"roughnessFactor":0.5
			}
		}
	],
	"meshes":[
		{
			"name":"Cube.016",
			"primitives":[
				{
					"attributes":{
						"POSITION":0,
						"NORMAL":1,
						"TEXCOORD_0":2,
						"TANGENT":3
					},
					"indices":4,
					"material":0
				}
			]
		}
	],
	"textures":[
		{
			"sampler":0,
			"source":0
		}
	],
	"images":[
		{
			"mimeType":"image/jpeg",
			"name":"31-05-2013_wood02-scaled.jpg",
			"uri":"../../models/textures/31-05-2013_wood02-scaled.jpg"
		}
	],
	"accessors":[
		{
			"bufferView":0,
			"componentType":5126,
			"count":251,
			"max":[
				1.0558044910430908,
				7.6315765380859375,
				5.571412563323975
			],
			"min":[
				-1.1015907526016235,
				-9.142672538757324,
				-14.417370796203613
			],
			"type":"VEC3"
		},
		{
			"bufferView":1,
			"componentType":5126,
			"count":251,
			"type":"VEC3"
		},
		{
			"bufferView":2,
			"componentType":5126,
			"count":251,
			"type":"VEC2"
		},
		{
			"bufferView":3,
			"componentType":5126,
			"count":251,
			"type":"VEC4"
		},
		{
			"bufferView":4,
			"componentType":5123,
			"count":756,
			"type":"SCALAR"
		}
	],
	"bufferViews":[
		{
			"buffer":0,
			"byteLength":3012,
			"byteOffset":0,
			"target":34962
		},
		{
			"buffer":0,
			"byteLength":3012,
			"byteOffset":3012,
			"target":34962
		},
		{
			"buffer":0,
			"byteLength":2008,
			"byteOffset":6024,
			"target":34962
		},
		{
			"buffer":0,
			"byteLength":4016,
			"byteOffset":8032,
			"target":34962
		},
		{
			"buffer":0,
			"byteLength":1512,
			"byteOffset":12048,
			"target":34963
		}
	],
	"samplers":[
		{
			"magFilter":9729,
			"minFilter":9987
		}
	],
	"buffers":[
		{
			"byteLength":13560,
			"uri":"%D0%BB%D0%BE%D0%B4%D0%BA%D0%B0-dc0e56c7726d7c7eee475209e3542612.bin"
		}
	]
}
