{
	"asset":{
		"generator":"Khronos glTF Blender I/O v4.2.70",
		"version":"2.0"
	},
	"scene":0,
	"scenes":[
		{
			"name":"Scene",
			"nodes":[
				0,
				1,
				2,
				3,
				4,
				5,
				6,
				7,
				8
			]
		}
	],
	"nodes":[
		{
			"mesh":0,
			"name":"\u0437\u0435\u043c\u043b\u044f",
			"scale":[
				38.847900390625,
				23.946943283081055,
				34.38021469116211
			],
			"translation":[
				-6.743579864501953,
				1.4529476165771484,
				-16.90909194946289
			]
		},
		{
			"mesh":1,
			"name":"\u0441\u0442\u0435\u043d\u044b",
			"scale":[
				6.079656600952148,
				1,
				40.21626281738281
			],
			"translation":[
				-51.38666534423828,
				0.7090423107147217,
				-11.214173316955566
			]
		},
		{
			"mesh":2,
			"name":"\u043a\u043e\u043b\u043e\u043d\u043d\u044b 4",
			"rotation":[
				0,
				-0.7071068286895752,
				0,
				0.7071068286895752
			],
			"scale":[
				0.9123864769935608,
				0.5367677807807922,
				0.5546279549598694
			],
			"translation":[
				-46.33705520629883,
				2.9701342582702637,
				-42.23628234863281
			]
		},
		{
			"mesh":3,
			"name":"\u043c\u043e\u0441\u0442",
			"scale":[
				4.929912090301514,
				0.1382848024368286,
				0.6972054243087769
			],
			"translation":[
				25.87929916381836,
				1.487229824066162,
				58.82081985473633
			]
		},
		{
			"mesh":4,
			"name":"\u043a\u043e\u043b\u043e\u043d\u043d\u044b 3",
			"rotation":[
				0,
				-0.7071068286895752,
				0,
				0.7071068286895752
			],
			"scale":[
				0.9123864769935608,
				0.5367677807807922,
				0.5546279549598694
			],
			"translation":[
				-46.33705520629883,
				11.596494674682617,
				-42.23628234863281
			]
		},
		{
			"mesh":5,
			"name":"\u043a\u043e\u043b\u043e\u043d\u043d\u044b1",
			"rotation":[
				1,
				0,
				0,
				0
			],
			"scale":[
				-1.2667452096939087,
				-1.2667452096939087,
				-1.2667452096939087
			],
			"translation":[
				3.282695770263672,
				-3.8190436363220215,
				-31.328563690185547
			]
		},
		{
			"mesh":6,
			"name":"\u043a\u0430\u043c\u043d\u0438",
			"rotation":[
				-0.7854839563369751,
				-0.11412390321493149,
				0.4462170898914337,
				0.4133776128292084
			],
			"translation":[
				16.619646072387695,
				2.1184816360473633,
				-50.74025344848633
			]
		},
		{
			"mesh":7,
			"name":"\u0433\u0430\u0437\u043e\u043d",
			"scale":[
				5.23520040512085,
				2.0420644283294678,
				16.619260787963867
			],
			"translation":[
				-28.43107795715332,
				0.916431188583374,
				-13.654808044433594
			]
		},
		{
			"mesh":8,
			"name":"\u0440\u0430\u0441\u0442\u0435\u043d\u0438\u044f",
			"rotation":[
				0,
				0.3422894775867462,
				0,
				0.939594566822052
			],
			"scale":[
				5.76800012588501,
				5.76800012588501,
				5.76800012588501
			],
			"translation":[
				15.275327682495117,
				0.9762576818466187,
				-20.198888778686523
			]
		}
	],
	"materials":[
		{
			"doubleSided":true,
			"name":"Material.001",
			"normalTexture":{
				"index":0
			},
			"pbrMetallicRoughness":{
				"baseColorTexture":{
					"index":1
				},
				"metallicFactor":0,
				"metallicRoughnessTexture":{
					"index":2
				}
			}
		},
		{
			"doubleSided":true,
			"name":"\u0441\u0442\u0435\u043d\u0430",
			"pbrMetallicRoughness":{
				"baseColorTexture":{
					"index":3
				},
				"metallicFactor":0,
				"roughnessFactor":0.5
			}
		},
		{
			"doubleSided":true,
			"name":"Material",
			"pbrMetallicRoughness":{
				"baseColorTexture":{
					"index":4
				},
				"metallicFactor":0,
				"roughnessFactor":0.5
			}
		},
		{
			"doubleSided":true,
			"name":"Material.002",
			"pbrMetallicRoughness":{
				"baseColorFactor":[
					0.06827456504106522,
					0.06827456504106522,
					0.06827456504106522,
					1
				],
				"metallicFactor":0,
				"roughnessFactor":0.5
			}
		},
		{
			"doubleSided":true,
			"name":"Material.003",
			"pbrMetallicRoughness":{
				"baseColorTexture":{
					"index":5
				},
				"metallicFactor":0,
				"roughnessFactor":0.5
			}
		},
		{
			"doubleSided":true,
			"name":"column",
			"pbrMetallicRoughness":{
				"baseColorFactor":[
					0.6303391456604004,
					0.4225575029850006,
					0.2962155044078827,
					1
				],
				"metallicFactor":0,
				"roughnessFactor":0.4681818187236786
			}
		},
		{
			"doubleSided":true,
			"name":"rock",
			"pbrMetallicRoughness":{
				"baseColorTexture":{
					"index":6
				},
				"metallicFactor":0,
				"roughnessFactor":0.5
			}
		},
		{
			"doubleSided":true,
			"name":"Material.005",
			"pbrMetallicRoughness":{
				"baseColorFactor":[
					0.058869436383247375,
					0.43038010597229004,
					0.004966932348906994,
					1
				],
				"metallicFactor":0,
				"roughnessFactor":0.5
			}
		},
		{
			"alphaMode":"BLEND",
			"doubleSided":true,
			"name":"Monstera_Mat",
			"normalTexture":{
				"index":7
			},
			"pbrMetallicRoughness":{
				"baseColorTexture":{
					"index":8
				},
				"metallicFactor":0,
				"metallicRoughnessTexture":{
					"index":9
				}
			}
		},
		{
			"alphaMode":"BLEND",
			"doubleSided":true,
			"name":"Monstera_Mat.001",
			"normalTexture":{
				"index":10
			},
			"pbrMetallicRoughness":{
				"baseColorTexture":{
					"index":11
				},
				"metallicFactor":0,
				"metallicRoughnessTexture":{
					"index":12
				}
			}
		}
	],
	"meshes":[
		{
			"name":"Plane.006",
			"primitives":[
				{
					"attributes":{
						"POSITION":0,
						"NORMAL":1,
						"TEXCOORD_0":2
					},
					"indices":3,
					"material":0
				}
			]
		},
		{
			"name":"Cube",
			"primitives":[
				{
					"attributes":{
						"POSITION":4,
						"NORMAL":5,
						"TEXCOORD_0":6
					},
					"indices":7,
					"material":1
				},
				{
					"attributes":{
						"POSITION":8,
						"NORMAL":9,
						"TEXCOORD_0":10
					},
					"indices":11,
					"material":2
				},
				{
					"attributes":{
						"POSITION":12,
						"NORMAL":13,
						"TEXCOORD_0":14
					},
					"indices":15,
					"material":3
				},
				{
					"attributes":{
						"POSITION":16,
						"NORMAL":17,
						"TEXCOORD_0":18
					},
					"indices":19,
					"material":4
				}
			]
		},
		{
			"name":"Cylinder.015",
			"primitives":[
				{
					"attributes":{
						"POSITION":20,
						"NORMAL":21,
						"TEXCOORD_0":22
					},
					"indices":23,
					"material":5
				}
			]
		},
		{
			"name":"Cube.008",
			"primitives":[
				{
					"attributes":{
						"POSITION":24,
						"NORMAL":25,
						"TEXCOORD_0":26
					},
					"indices":27,
					"material":4
				}
			]
		},
		{
			"name":"Cylinder.001",
			"primitives":[
				{
					"attributes":{
						"POSITION":28,
						"NORMAL":29,
						"TEXCOORD_0":30
					},
					"indices":31,
					"material":5
				}
			]
		},
		{
			"name":"Cylinder.009",
			"primitives":[
				{
					"attributes":{
						"POSITION":32,
						"NORMAL":33,
						"TEXCOORD_0":34
					},
					"indices":35,
					"material":5
				}
			]
		},
		{
			"name":"rock.001",
			"primitives":[
				{
					"attributes":{
						"POSITION":36,
						"NORMAL":37,
						"TEXCOORD_0":38
					},
					"indices":39,
					"material":6
				}
			]
		},
		{
			"name":"Cube.002",
			"primitives":[
				{
					"attributes":{
						"POSITION":40,
						"NORMAL":41,
						"TEXCOORD_0":42
					},
					"indices":43,
					"material":5
				},
				{
					"attributes":{
						"POSITION":44,
						"NORMAL":45,
						"TEXCOORD_0":46
					},
					"indices":47,
					"material":7
				}
			]
		},
		{
			"name":"Monstera_001.008",
			"primitives":[
				{
					"attributes":{
						"POSITION":48,
						"NORMAL":49,
						"TEXCOORD_0":50
					},
					"indices":51,
					"material":8
				},
				{
					"attributes":{
						"POSITION":52,
						"NORMAL":53,
						"TEXCOORD_0":54
					},
					"indices":55,
					"material":9
				}
			]
		}
	],
	"textures":[
		{
			"sampler":0,
			"source":0
		},
		{
			"sampler":0,
			"source":1
		},
		{
			"sampler":0,
			"source":2
		},
		{
			"sampler":0,
			"source":3
		},
		{
			"sampler":0,
			"source":4
		},
		{
			"sampler":0,
			"source":4
		},
		{
			"sampler":0,
			"source":3
		},
		{
			"sampler":0,
			"source":5
		},
		{
			"sampler":0,
			"source":6
		},
		{
			"sampler":0,
			"source":7
		},
		{
			"sampler":0,
			"source":5
		},
		{
			"sampler":0,
			"source":6
		},
		{
			"sampler":0,
			"source":7
		}
	],
	"images":[
		{
			"mimeType":"image/png",
			"name":"gray_rocks_nor_gl_1k",
			"uri":"gray_rocks_nor_gl_1k.png"
		},
		{
			"mimeType":"image/jpeg",
			"name":"gray_rocks_diff_1k",
			"uri":"gray_rocks_diff_1k.jpg"
		},
		{
			"mimeType":"image/png",
			"name":"gray_rocks_rough_1k",
			"uri":"gray_rocks_rough_1k.png"
		},
		{
			"mimeType":"image/jpeg",
			"name":"concrete_wall_003_diff_1k",
			"uri":"concrete_wall_003_diff_1k.jpg"
		},
		{
			"mimeType":"image/jpeg",
			"name":"4374",
			"uri":"4374.jpg"
		},
		{
			"mimeType":"image/png",
			"name":"Monstera_Normal",
			"uri":"Monstera_Normal.png"
		},
		{
			"mimeType":"image/png",
			"name":"Monstera_Albedo",
			"uri":"Monstera_Albedo.png"
		},
		{
			"mimeType":"image/png",
			"name":"Monstera_rgh",
			"uri":"Monstera_rgh.png"
		}
	],
	"accessors":[
		{
			"bufferView":0,
			"componentType":5126,
			"count":20,
			"max":[
				1,
				0,
				2.1929211616516113
			],
			"min":[
				-1,
				0,
				-1
			],
			"type":"VEC3"
		},
		{
			"bufferView":1,
			"componentType":5126,
			"count":20,
			"type":"VEC3"
		},
		{
			"bufferView":2,
			"componentType":5126,
			"count":20,
			"type":"VEC2"
		},
		{
			"bufferView":3,
			"componentType":5123,
			"count":48,
			"type":"SCALAR"
		},
		{
			"bufferView":4,
			"componentType":5126,
			"count":337,
			"max":[
				7.0561041831970215,
				18.95708656311035,
				1.0539624691009521
			],
			"min":[
				-1.356955647468567,
				-1,
				-1.0000711679458618
			],
			"type":"VEC3"
		},
		{
			"bufferView":5,
			"componentType":5126,
			"count":337,
			"type":"VEC3"
		},
		{
			"bufferView":6,
			"componentType":5126,
			"count":337,
			"type":"VEC2"
		},
		{
			"bufferView":7,
			"componentType":5123,
			"count":810,
			"type":"SCALAR"
		},
		{
			"bufferView":8,
			"componentType":5126,
			"count":442,
			"max":[
				13.838979721069336,
				13.84167766571045,
				0.7105225324630737
			],
			"min":[
				8.111288070678711,
				0.605461597442627,
				-0.9993135929107666
			],
			"type":"VEC3"
		},
		{
			"bufferView":9,
			"componentType":5126,
			"count":442,
			"type":"VEC3"
		},
		{
			"bufferView":10,
			"componentType":5126,
			"count":442,
			"type":"VEC2"
		},
		{
			"bufferView":11,
			"componentType":5123,
			"count":1110,
			"type":"SCALAR"
		},
		{
			"bufferView":12,
			"componentType":5126,
			"count":44,
			"max":[
				11.465364456176758,
				11.133135795593262,
				0.6979454159736633
			],
			"min":[
				9.402237892150879,
				5.267221450805664,
				-0.8609883785247803
			],
			"type":"VEC3"
		},
		{
			"bufferView":13,
			"componentType":5126,
			"count":44,
			"type":"VEC3"
		},
		{
			"bufferView":14,
			"componentType":5126,
			"count":44,
			"type":"VEC2"
		},
		{
			"bufferView":15,
			"componentType":5123,
			"count":66,
			"type":"SCALAR"
		},
		{
			"bufferView":16,
			"componentType":5126,
			"count":472,
			"max":[
				8.277304649353027,
				13.840642929077148,
				0.7162455320358276
			],
			"min":[
				-1.0985527038574219,
				-3.7841086387634277,
				-0.34847044944763184
			],
			"type":"VEC3"
		},
		{
			"bufferView":17,
			"componentType":5126,
			"count":472,
			"type":"VEC3"
		},
		{
			"bufferView":18,
			"componentType":5126,
			"count":472,
			"type":"VEC2"
		},
		{
			"bufferView":19,
			"componentType":5123,
			"count":1212,
			"type":"SCALAR"
		},
		{
			"bufferView":20,
			"componentType":5126,
			"count":6877,
			"max":[
				67.23937225341797,
				14.400049209594727,
				1.7411741018295288
			],
			"min":[
				-3.5217831134796143,
				-2.542264938354492,
				-54.80735397338867
			],
			"type":"VEC3"
		},
		{
			"bufferView":21,
			"componentType":5126,
			"count":6877,
			"type":"VEC3"
		},
		{
			"bufferView":22,
			"componentType":5126,
			"count":6877,
			"type":"VEC2"
		},
		{
			"bufferView":23,
			"componentType":5123,
			"count":19524,
			"type":"SCALAR"
		},
		{
			"bufferView":24,
			"componentType":5126,
			"count":288,
			"max":[
				1,
				1,
				22.970230102539062
			],
			"min":[
				-1,
				-2.5054855346679688,
				-1.4769277572631836
			],
			"type":"VEC3"
		},
		{
			"bufferView":25,
			"componentType":5126,
			"count":288,
			"type":"VEC3"
		},
		{
			"bufferView":26,
			"componentType":5126,
			"count":288,
			"type":"VEC2"
		},
		{
			"bufferView":27,
			"componentType":5123,
			"count":432,
			"type":"SCALAR"
		},
		{
			"bufferView":28,
			"componentType":5126,
			"count":3724,
			"max":[
				59.466285705566406,
				14.347919464111328,
				1.00091552734375
			],
			"min":[
				-1.0009154081344604,
				-1.0000004768371582,
				-1.0009230375289917
			],
			"type":"VEC3"
		},
		{
			"bufferView":29,
			"componentType":5126,
			"count":3724,
			"type":"VEC3"
		},
		{
			"bufferView":30,
			"componentType":5126,
			"count":3724,
			"type":"VEC2"
		},
		{
			"bufferView":31,
			"componentType":5123,
			"count":10704,
			"type":"SCALAR"
		},
		{
			"bufferView":32,
			"componentType":5126,
			"count":906,
			"max":[
				1.0006449222564697,
				18.203767776489258,
				1.0491656064987183
			],
			"min":[
				-5.625401496887207,
				-0.9867817759513855,
				-12.38312816619873
			],
			"type":"VEC3"
		},
		{
			"bufferView":33,
			"componentType":5126,
			"count":906,
			"type":"VEC3"
		},
		{
			"bufferView":34,
			"componentType":5126,
			"count":906,
			"type":"VEC2"
		},
		{
			"bufferView":35,
			"componentType":5123,
			"count":1350,
			"type":"SCALAR"
		},
		{
			"bufferView":36,
			"componentType":5126,
			"count":3097,
			"max":[
				0.8906334042549133,
				13.929887771606445,
				52.1015625
			],
			"min":[
				-71.98402404785156,
				-84.98229217529297,
				-39.681766510009766
			],
			"type":"VEC3"
		},
		{
			"bufferView":37,
			"componentType":5126,
			"count":3097,
			"type":"VEC3"
		},
		{
			"bufferView":38,
			"componentType":5126,
			"count":3097,
			"type":"VEC2"
		},
		{
			"bufferView":39,
			"componentType":5123,
			"count":12816,
			"type":"SCALAR"
		},
		{
			"bufferView":40,
			"componentType":5126,
			"count":238,
			"max":[
				9.817834854125977,
				0.6978253126144409,
				1.363141417503357
			],
			"min":[
				-1,
				-1.302174687385559,
				-1
			],
			"type":"VEC3"
		},
		{
			"bufferView":41,
			"componentType":5126,
			"count":238,
			"type":"VEC3"
		},
		{
			"bufferView":42,
			"componentType":5126,
			"count":238,
			"type":"VEC2"
		},
		{
			"bufferView":43,
			"componentType":5123,
			"count":348,
			"type":"SCALAR"
		},
		{
			"bufferView":44,
			"componentType":5126,
			"count":8,
			"max":[
				9.69430923461914,
				0.31170588731765747,
				1.2396156787872314
			],
			"min":[
				-0.9356426000595093,
				0.31170588731765747,
				-0.935642421245575
			],
			"type":"VEC3"
		},
		{
			"bufferView":45,
			"componentType":5126,
			"count":8,
			"type":"VEC3"
		},
		{
			"bufferView":46,
			"componentType":5126,
			"count":8,
			"type":"VEC2"
		},
		{
			"bufferView":47,
			"componentType":5123,
			"count":12,
			"type":"SCALAR"
		},
		{
			"bufferView":48,
			"componentType":5126,
			"count":1096,
			"max":[
				0.7378836870193481,
				0.8895320892333984,
				3.2669055461883545
			],
			"min":[
				-9.417523384094238,
				-0.009077259339392185,
				-6.887255668640137
			],
			"type":"VEC3"
		},
		{
			"bufferView":49,
			"componentType":5126,
			"count":1096,
			"type":"VEC3"
		},
		{
			"bufferView":50,
			"componentType":5126,
			"count":1096,
			"type":"VEC2"
		},
		{
			"bufferView":51,
			"componentType":5123,
			"count":2952,
			"type":"SCALAR"
		},
		{
			"bufferView":52,
			"componentType":5126,
			"count":1062,
			"max":[
				0.07061618566513062,
				0.9875136017799377,
				4.110941410064697
			],
			"min":[
				-9.157390594482422,
				0.023104364052414894,
				-6.117507457733154
			],
			"type":"VEC3"
		},
		{
			"bufferView":53,
			"componentType":5126,
			"count":1062,
			"type":"VEC3"
		},
		{
			"bufferView":54,
			"componentType":5126,
			"count":1062,
			"type":"VEC2"
		},
		{
			"bufferView":55,
			"componentType":5123,
			"count":2916,
			"type":"SCALAR"
		}
	],
	"bufferViews":[
		{
			"buffer":0,
			"byteLength":240,
			"byteOffset":0,
			"target":34962
		},
		{
			"buffer":0,
			"byteLength":240,
			"byteOffset":240,
			"target":34962
		},
		{
			"buffer":0,
			"byteLength":160,
			"byteOffset":480,
			"target":34962
		},
		{
			"buffer":0,
			"byteLength":96,
			"byteOffset":640,
			"target":34963
		},
		{
			"buffer":0,
			"byteLength":4044,
			"byteOffset":736,
			"target":34962
		},
		{
			"buffer":0,
			"byteLength":4044,
			"byteOffset":4780,
			"target":34962
		},
		{
			"buffer":0,
			"byteLength":2696,
			"byteOffset":8824,
			"target":34962
		},
		{
			"buffer":0,
			"byteLength":1620,
			"byteOffset":11520,
			"target":34963
		},
		{
			"buffer":0,
			"byteLength":5304,
			"byteOffset":13140,
			"target":34962
		},
		{
			"buffer":0,
			"byteLength":5304,
			"byteOffset":18444,
			"target":34962
		},
		{
			"buffer":0,
			"byteLength":3536,
			"byteOffset":23748,
			"target":34962
		},
		{
			"buffer":0,
			"byteLength":2220,
			"byteOffset":27284,
			"target":34963
		},
		{
			"buffer":0,
			"byteLength":528,
			"byteOffset":29504,
			"target":34962
		},
		{
			"buffer":0,
			"byteLength":528,
			"byteOffset":30032,
			"target":34962
		},
		{
			"buffer":0,
			"byteLength":352,
			"byteOffset":30560,
			"target":34962
		},
		{
			"buffer":0,
			"byteLength":132,
			"byteOffset":30912,
			"target":34963
		},
		{
			"buffer":0,
			"byteLength":5664,
			"byteOffset":31044,
			"target":34962
		},
		{
			"buffer":0,
			"byteLength":5664,
			"byteOffset":36708,
			"target":34962
		},
		{
			"buffer":0,
			"byteLength":3776,
			"byteOffset":42372,
			"target":34962
		},
		{
			"buffer":0,
			"byteLength":2424,
			"byteOffset":46148,
			"target":34963
		},
		{
			"buffer":0,
			"byteLength":82524,
			"byteOffset":48572,
			"target":34962
		},
		{
			"buffer":0,
			"byteLength":82524,
			"byteOffset":131096,
			"target":34962
		},
		{
			"buffer":0,
			"byteLength":55016,
			"byteOffset":213620,
			"target":34962
		},
		{
			"buffer":0,
			"byteLength":39048,
			"byteOffset":268636,
			"target":34963
		},
		{
			"buffer":0,
			"byteLength":3456,
			"byteOffset":307684,
			"target":34962
		},
		{
			"buffer":0,
			"byteLength":3456,
			"byteOffset":311140,
			"target":34962
		},
		{
			"buffer":0,
			"byteLength":2304,
			"byteOffset":314596,
			"target":34962
		},
		{
			"buffer":0,
			"byteLength":864,
			"byteOffset":316900,
			"target":34963
		},
		{
			"buffer":0,
			"byteLength":44688,
			"byteOffset":317764,
			"target":34962
		},
		{
			"buffer":0,
			"byteLength":44688,
			"byteOffset":362452,
			"target":34962
		},
		{
			"buffer":0,
			"byteLength":29792,
			"byteOffset":407140,
			"target":34962
		},
		{
			"buffer":0,
			"byteLength":21408,
			"byteOffset":436932,
			"target":34963
		},
		{
			"buffer":0,
			"byteLength":10872,
			"byteOffset":458340,
			"target":34962
		},
		{
			"buffer":0,
			"byteLength":10872,
			"byteOffset":469212,
			"target":34962
		},
		{
			"buffer":0,
			"byteLength":7248,
			"byteOffset":480084,
			"target":34962
		},
		{
			"buffer":0,
			"byteLength":2700,
			"byteOffset":487332,
			"target":34963
		},
		{
			"buffer":0,
			"byteLength":37164,
			"byteOffset":490032,
			"target":34962
		},
		{
			"buffer":0,
			"byteLength":37164,
			"byteOffset":527196,
			"target":34962
		},
		{
			"buffer":0,
			"byteLength":24776,
			"byteOffset":564360,
			"target":34962
		},
		{
			"buffer":0,
			"byteLength":25632,
			"byteOffset":589136,
			"target":34963
		},
		{
			"buffer":0,
			"byteLength":2856,
			"byteOffset":614768,
			"target":34962
		},
		{
			"buffer":0,
			"byteLength":2856,
			"byteOffset":617624,
			"target":34962
		},
		{
			"buffer":0,
			"byteLength":1904,
			"byteOffset":620480,
			"target":34962
		},
		{
			"buffer":0,
			"byteLength":696,
			"byteOffset":622384,
			"target":34963
		},
		{
			"buffer":0,
			"byteLength":96,
			"byteOffset":623080,
			"target":34962
		},
		{
			"buffer":0,
			"byteLength":96,
			"byteOffset":623176,
			"target":34962
		},
		{
			"buffer":0,
			"byteLength":64,
			"byteOffset":623272,
			"target":34962
		},
		{
			"buffer":0,
			"byteLength":24,
			"byteOffset":623336,
			"target":34963
		},
		{
			"buffer":0,
			"byteLength":13152,
			"byteOffset":623360,
			"target":34962
		},
		{
			"buffer":0,
			"byteLength":13152,
			"byteOffset":636512,
			"target":34962
		},
		{
			"buffer":0,
			"byteLength":8768,
			"byteOffset":649664,
			"target":34962
		},
		{
			"buffer":0,
			"byteLength":5904,
			"byteOffset":658432,
			"target":34963
		},
		{
			"buffer":0,
			"byteLength":12744,
			"byteOffset":664336,
			"target":34962
		},
		{
			"buffer":0,
			"byteLength":12744,
			"byteOffset":677080,
			"target":34962
		},
		{
			"buffer":0,
			"byteLength":8496,
			"byteOffset":689824,
			"target":34962
		},
		{
			"buffer":0,
			"byteLength":5832,
			"byteOffset":698320,
			"target":34963
		}
	],
	"samplers":[
		{
			"magFilter":9729,
			"minFilter":9987
		}
	],
	"buffers":[
		{
			"byteLength":704152,
			"uri":"place.bin"
		}
	]
}
