{
	"asset":{
		"generator":"Khronos glTF Blender I/O v4.2.70",
		"version":"2.0"
	},
	"scene":0,
	"scenes":[
		{
			"name":"Scene",
			"nodes":[
				0
			]
		}
	],
	"nodes":[
		{
			"mesh":0,
			"name":"rock"
		}
	],
	"materials":[
		{
			"doubleSided":true,
			"name":"Material.001",
			"pbrMetallicRoughness":{
				"baseColorTexture":{
					"index":0
				},
				"metallicFactor":0,
				"roughnessFactor":0.5
			}
		}
	],
	"meshes":[
		{
			"name":"rock",
			"primitives":[
				{
					"attributes":{
						"POSITION":0,
						"NORMAL":1,
						"TEXCOORD_0":2
					},
					"indices":3,
					"material":0
				}
			]
		}
	],
	"textures":[
		{
			"sampler":0,
			"source":0
		}
	],
	"images":[
		{
			"mimeType":"image/jpeg",
			"name":"vZcuMNgbK6c",
			"uri":"vZcuMNgbK6c.jpg"
		}
	],
	"accessors":[
		{
			"bufferView":0,
			"componentType":5126,
			"count":162,
			"max":[
				0.5473560094833374,
				0.5462360978126526,
				0.56375652551651
			],
			"min":[
				-0.4771374762058258,
				-0.560623288154602,
				-0.45541250705718994
			],
			"type":"VEC3"
		},
		{
			"bufferView":1,
			"componentType":5126,
			"count":162,
			"type":"VEC3"
		},
		{
			"bufferView":2,
			"componentType":5126,
			"count":162,
			"type":"VEC2"
		},
		{
			"bufferView":3,
			"componentType":5123,
			"count":576,
			"type":"SCALAR"
		}
	],
	"bufferViews":[
		{
			"buffer":0,
			"byteLength":1944,
			"byteOffset":0,
			"target":34962
		},
		{
			"buffer":0,
			"byteLength":1944,
			"byteOffset":1944,
			"target":34962
		},
		{
			"buffer":0,
			"byteLength":1296,
			"byteOffset":3888,
			"target":34962
		},
		{
			"buffer":0,
			"byteLength":1152,
			"byteOffset":5184,
			"target":34963
		}
	],
	"samplers":[
		{
			"magFilter":9729,
			"minFilter":9987
		}
	],
	"buffers":[
		{
			"byteLength":6336,
			"uri":"rock.bin"
		}
	]
}
